HIERARCHY
ROOT root
{
	OFFSET 0.000000 0.000000 0.000000
	CHANNELS 6 Xposition Yposition Zposition Zrotation Yrotation Xrotation
	JOINT lhip
	{
		OFFSET 0.058581 -0.082280 -0.017664
		CHANNELS 3 Zrotation Yrotation Xrotation
		JOINT lknee
		{
			OFFSET 0.043451 -0.386469 0.008037
			CHANNELS 3 Zrotation Yrotation Xrotation
			JOINT lankle
			{
				OFFSET -0.014790 -0.426874 -0.037428
				CHANNELS 3 Zrotation Yrotation Xrotation
				JOINT ltoe
				{
					OFFSET 0.041054 -0.060286 0.122042
					CHANNELS 3 Zrotation Yrotation Xrotation
					End Site
					{
						OFFSET 0.000000 0.000000 0.000000
					}
				}
			}
		}
	}
	JOINT rhip
	{
		OFFSET -0.060310 -0.090513 -0.013543
		CHANNELS 3 Zrotation Yrotation Xrotation
		JOINT rknee
		{
			OFFSET -0.043257 -0.383688 -0.004843
			CHANNELS 3 Zrotation Yrotation Xrotation
			JOINT rankle
			{
				OFFSET 0.019056 -0.420046 -0.034562
				CHANNELS 3 Zrotation Yrotation Xrotation
				JOINT rtoe
				{
					OFFSET -0.034840 -0.062106 0.130323
					CHANNELS 3 Zrotation Yrotation Xrotation
					End Site
					{
						OFFSET 0.000000 0.000000 0.000000
					}
				}
			}
		}
	}
	JOINT lowerback
	{
		OFFSET 0.004439 0.124404 -0.038385
		CHANNELS 3 Zrotation Yrotation Xrotation
		JOINT upperback
		{
			OFFSET 0.004488 0.137956 0.026820
			CHANNELS 3 Zrotation Yrotation Xrotation
			JOINT chest
			{
				OFFSET -0.002265 0.056032 0.002855
				CHANNELS 3 Zrotation Yrotation Xrotation
				JOINT lowerneck
				{
					OFFSET -0.013390 0.211636 -0.033468
					CHANNELS 3 Zrotation Yrotation Xrotation
					JOINT upperneck
					{
						OFFSET 0.010113 0.088937 0.050410
						CHANNELS 3 Zrotation Yrotation Xrotation
						End Site
						{
							OFFSET 0.000000 0.000000 0.000000
						}
					}
				}
				JOINT lclavicle
				{
					OFFSET 0.071702 0.114000 -0.018898
					CHANNELS 3 Zrotation Yrotation Xrotation
					JOINT lshoulder
					{
						OFFSET 0.122921 0.045205 -0.019046
						CHANNELS 3 Zrotation Yrotation Xrotation
						JOINT lelbow
						{
							OFFSET 0.255332 -0.015649 -0.022946
							CHANNELS 3 Zrotation Yrotation Xrotation
							JOINT lwrist
							{
								OFFSET 0.265709 0.012698 -0.007375
								CHANNELS 3 Zrotation Yrotation Xrotation
								End Site
								{
									OFFSET 0.000000 0.000000 0.000000
								}
							}
						}
					}
				}
				JOINT rclavicle
				{
					OFFSET -0.082954 0.112472 -0.023707
					CHANNELS 3 Zrotation Yrotation Xrotation
					JOINT rshoulder
					{
						OFFSET -0.113228 0.046853 -0.008472
						CHANNELS 3 Zrotation Yrotation Xrotation
						JOINT relbow
						{
							OFFSET -0.260127 -0.014369 -0.031269
							CHANNELS 3 Zrotation Yrotation Xrotation
							JOINT rwrist
							{
								OFFSET -0.269108 0.006794 -0.006027
								CHANNELS 3 Zrotation Yrotation Xrotation
								End Site
								{
									OFFSET 0.000000 0.000000 0.000000
								}
							}
						}
					}
				}
			}
		}
	}
}
MOTION
Frames: 14
Frame Time: 0.033333
0.004873 0.230323 0.997101 94.652864 0.390607 88.619108 1.726872 1.284677 1.250049 0.830118 -8.518002 0.638018 -1.100070 7.880732 -3.995197 0.000000 -0.000000 0.000000 -1.742989 -3.986239 3.060163 -2.559114 0.925312 -0.977969 2.472554 -8.297394 -6.612093 0.000000 -0.000000 0.000000 -1.933990 2.659270 -1.096902 0.768599 -4.692245 12.279801 -0.538289 -1.006299 -6.720624 0.755062 -4.956556 -2.587903 5.742975 -5.800814 2.403372 -24.788631 -6.851392 4.293611 -55.616833 -6.328087 18.854617 4.921656 -21.288533 11.242536 -13.874461 -8.643150 11.790947 24.477642 12.089259 5.098978 55.837535 6.005996 16.731250 -3.567713 18.607843 5.783244 14.282859 7.052671 2.494417 
0.004376 0.230188 0.997465 94.693026 0.489850 88.497695 1.820398 1.417305 1.077009 0.769753 -8.606250 1.166280 -1.182941 7.754038 -4.218232 0.000000 -0.000000 0.000000 -1.553154 -3.964468 2.911670 -2.695565 0.823414 -0.460549 2.111021 -8.253454 -6.835944 0.000000 -0.000000 0.000000 -1.700531 2.525122 -0.916561 0.660031 -4.678339 12.685927 -0.548301 -1.014401 -6.482002 0.834208 -4.714046 -2.453139 5.828033 -5.746609 1.449904 -24.902235 -6.950582 3.991111 -54.354395 -6.129655 18.128401 4.630459 -22.788429 10.486543 -14.721186 -9.356219 11.446462 24.380239 12.140905 5.171837 54.058413 5.823161 16.280240 -2.359813 21.299099 6.037112 15.153146 8.111688 2.078601 
0.004112 0.230074 0.997882 94.427081 0.473836 88.029475 1.744515 1.001866 1.391929 0.684583 -8.311418 1.713815 -1.084703 8.122475 -4.513355 0.000000 -0.000000 0.000000 -1.541312 -3.819073 3.089075 -2.776409 0.952278 0.089867 2.142162 -8.241850 -7.024380 0.000000 -0.000000 0.000000 -1.589424 2.808800 -0.561790 0.612698 -4.685267 13.528404 -0.615115 -1.007132 -6.228825 0.734432 -4.504373 -2.165721 6.211219 -5.691251 -0.163980 -24.629258 -6.815309 3.431750 -52.453467 -6.102734 17.220097 3.504005 -25.212574 9.865545 -15.878295 -9.776813 10.249543 23.767801 12.044213 5.068772 52.093259 5.519312 15.848184 -0.984385 24.948939 5.563209 16.227031 9.348735 0.169158 
0.002622 0.229935 0.998009 94.359946 0.417343 87.609010 1.614269 0.842890 1.350100 0.571332 -8.395025 2.596974 -1.131878 8.380059 -4.976590 0.000000 -0.000000 0.000000 -1.535670 -3.706525 3.129479 -2.850610 0.913643 0.714509 2.146641 -8.324575 -7.195979 0.000000 -0.000000 0.000000 -1.526841 2.834920 -0.237620 0.505599 -4.823117 14.809195 -0.749509 -0.823748 -5.978884 0.597509 -4.442575 -0.938815 6.940086 -5.347517 -2.936663 -23.708355 -6.545243 2.578463 -48.522251 -5.884742 16.253909 0.761624 -30.289503 9.871508 -17.385160 -10.569238 8.256178 22.158948 12.302321 4.621806 49.218085 4.533256 15.546525 1.370819 30.763992 4.661794 17.247038 11.709659 -4.113439 
0.001375 0.230086 0.997903 94.405912 0.239514 87.412683 1.314342 0.819031 1.173052 0.547044 -8.679213 3.231394 -1.184303 8.568504 -5.208398 0.000000 -0.000000 0.000000 -1.679628 -3.703966 2.983456 -2.950881 1.141617 1.285137 2.214242 -8.364138 -7.396806 0.000000 -0.000000 0.000000 -1.671787 2.948802 -0.231058 0.453644 -4.984554 15.884191 -0.785721 -0.747284 -5.865637 0.309332 -4.412527 0.096491 7.506165 -5.093655 -5.016537 -22.673045 -6.990465 2.157268 -45.384705 -5.723828 15.833033 -1.496585 -33.678942 9.661813 -18.094279 -11.253121 6.765742 20.761218 12.886132 4.314068 47.056738 3.695814 15.429129 3.122714 34.527152 3.806064 17.872255 13.428528 -7.652561 
0.001467 0.231548 0.997833 94.449478 0.037947 87.129685 1.087092 1.616546 0.837845 -0.080850 -11.975237 4.346380 -1.629614 11.297820 -5.702123 0.000000 -0.000000 0.000000 -2.119288 -4.015531 2.914934 -2.353090 3.427330 1.785445 1.921196 -11.009672 -7.315086 0.000000 -0.000000 0.000000 -2.164060 2.983904 -1.999206 0.424529 -5.426743 20.639653 -0.598502 -0.329102 -6.522055 -1.371037 -6.500880 0.481095 9.372153 -2.695709 -6.734714 -24.483224 -8.975368 3.350266 -36.325365 -5.813086 12.504611 -3.812955 -38.948880 5.914447 -27.154167 -5.984214 3.228246 20.474625 13.417304 5.393548 37.667704 3.900979 10.051753 15.561287 40.457776 6.085087 28.220316 10.304561 -20.632654 
0.000451 0.232739 0.997425 94.578388 -0.104285 86.555230 0.938542 1.819874 0.835224 -0.366543 -12.825645 5.364952 -1.816609 12.042324 -6.273339 0.000000 -0.000000 0.000000 -2.336878 -4.062991 3.111580 -2.216854 3.902349 2.487653 1.655947 -11.640162 -7.510310 0.000000 -0.000000 0.000000 -2.267867 3.081617 -1.742730 0.133271 -5.763039 21.977793 -0.165215 -0.285201 -6.018157 -2.654566 -6.264831 2.136377 10.592876 -1.979768 -9.134550 -23.974201 -11.271480 2.792826 -28.531838 -4.522731 11.853094 -8.529233 -40.906556 4.446982 -26.290377 -7.074933 1.440943 18.767070 16.084507 5.213979 30.998564 1.952466 9.284921 22.999279 42.479993 5.052062 28.092262 13.838229 -25.899825 
-0.001575 0.234510 0.997068 94.748951 -0.185357 86.179107 0.873068 1.865734 0.725016 -0.585072 -13.390919 6.054267 -1.973426 12.606041 -6.544410 0.000000 -0.000000 0.000000 -2.467207 -4.139809 3.133086 -2.078281 4.335877 2.971893 1.511980 -12.244717 -7.482137 0.000000 -0.000000 0.000000 -2.282095 3.239895 -1.563341 -0.168192 -6.088234 22.982170 0.241874 -0.118136 -5.198765 -3.922493 -5.789811 4.133843 11.790019 -1.562804 -11.818107 -22.483899 -13.936449 2.248012 -20.922614 -3.324768 11.279374 -13.199775 -40.995537 1.991740 -25.075072 -8.831400 -0.828125 16.246967 19.177023 5.161492 25.068391 -0.523802 8.828508 28.886441 43.277747 2.750258 27.710416 16.859388 -31.369447 
-0.003610 0.236079 0.997375 94.934936 -0.257287 85.958000 0.845202 1.796564 0.539036 -0.846905 -13.930858 6.637939 -2.208734 13.287702 -6.692818 0.000000 -0.000000 0.000000 -2.531754 -4.269049 3.166344 -2.025857 4.887461 3.163140 1.610501 -12.985703 -7.353549 0.000000 -0.000000 0.000000 -2.466249 3.566265 -1.416758 -0.278697 -6.388369 23.211461 0.710394 -0.233759 -3.921337 -5.309865 -5.222257 6.654917 13.045350 -0.987727 -14.544573 -19.826166 -15.984686 1.321110 -14.080970 -2.673396 10.237865 -18.388906 -39.041722 -0.803198 -26.383204 -10.570787 -3.840773 12.929790 21.327563 4.209883 19.710068 -2.232228 8.379265 34.760448 41.925990 1.550838 28.130399 18.893399 -34.679048 
-0.006229 0.238215 0.998210 95.412488 -0.312018 85.977032 0.799475 1.712334 -0.083953 -1.111309 -14.430668 7.442496 -2.472090 13.692068 -6.654178 0.000000 -0.000000 0.000000 -2.525457 -4.262544 2.999587 -1.978508 5.225664 3.204142 1.808029 -13.994639 -6.897302 0.000000 -0.000000 0.000000 -2.723804 3.661879 -0.981301 -0.306443 -6.660296 22.140743 1.153087 -0.217046 -1.678517 -6.775173 -4.439581 10.056856 14.554353 -0.744154 -18.081285 -14.669404 -17.455927 -0.273572 -7.022298 -1.983898 8.828343 -25.622457 -37.187743 -2.536572 -29.911510 -15.045408 -8.868197 7.113761 22.578412 2.136262 15.326713 -4.225589 7.669037 40.325403 40.405282 2.766838 28.184427 20.332650 -35.994206 
-0.007882 0.239667 0.999497 95.865008 -0.348858 86.186046 0.748310 1.455855 -0.903122 -1.365259 -14.561623 8.329797 -2.627734 13.842161 -6.624572 0.000000 -0.000000 0.000000 -2.511101 -4.282954 2.566823 -1.933518 5.366940 3.625629 2.247431 -14.761694 -6.861695 0.000000 -0.000000 0.000000 -3.142033 3.721455 -0.606873 -0.125455 -6.771167 20.415886 1.550532 -0.220988 0.722901 -7.759470 -3.900382 12.637345 15.772888 -0.826191 -20.844190 -9.554117 -17.074784 -1.898335 -2.647501 -1.540725 8.323643 -32.398309 -38.626575 -1.551057 -31.057581 -18.934333 -13.645643 2.004926 22.053460 0.166874 12.809997 -5.671205 7.565336 44.527183 40.577714 4.346799 27.687272 21.857490 -39.081113 
-0.009470 0.241341 1.000989 96.190154 -0.351387 86.388729 0.740595 1.011288 -1.917553 -1.781898 -14.342453 9.659221 -2.524314 13.922254 -6.725137 0.000000 -0.000000 0.000000 -2.546089 -4.175584 1.786607 -1.719339 5.363658 4.656593 2.640492 -15.279409 -7.043216 0.000000 -0.000000 0.000000 -3.384014 3.705135 0.218127 0.063730 -6.737744 18.042522 1.852256 -0.243663 3.219374 -8.490374 -3.389380 14.995071 16.628228 -0.720307 -23.128851 -4.365268 -15.267337 -3.691174 1.029708 -1.071056 8.896648 -40.932091 -43.072150 1.985071 -31.207105 -22.776734 -19.650091 -3.050532 20.195947 -1.673921 10.497290 -6.934135 8.125795 50.776167 42.991922 7.382994 27.086405 23.548684 -44.018359 
-0.010897 0.243056 1.002491 96.584692 -0.286019 86.445765 0.858895 0.356715 -3.228944 -2.583185 -13.909519 12.009009 -2.328308 14.028111 -7.352624 0.000000 -0.000000 0.000000 -2.611115 -3.983248 0.647147 -1.228122 5.273954 6.818547 2.869333 -15.768202 -7.753493 0.000000 -0.000000 0.000000 -3.517486 3.617700 1.412701 0.324480 -6.649980 15.244916 2.179346 -0.296820 5.877993 -9.358955 -3.132355 17.110319 17.605569 -0.469626 -24.872722 0.425030 -12.847825 -5.353789 3.910511 -0.603367 10.364865 -51.511721 -48.878227 7.955984 -29.743508 -27.911097 -27.541076 -7.748065 17.596011 -3.392145 8.026851 -8.342073 9.390320 60.897172 46.985684 14.556288 25.878749 26.243665 -49.076579 
-0.012509 0.245026 1.003465 96.914205 -0.109610 86.147650 1.154350 -0.344147 -4.812951 -3.847181 -13.350947 15.721084 -2.120505 14.137870 -8.490004 0.000000 -0.000000 0.000000 -2.783304 -3.630252 -0.766201 -0.311875 4.867591 10.320865 2.887325 -16.023605 -9.088683 0.000000 -0.000000 0.000000 -3.404617 3.349879 2.844367 0.515842 -6.509847 13.121040 2.458681 -0.385900 7.956193 -10.028290 -2.802575 18.830219 18.040445 -0.065999 -26.070191 4.188641 -10.137075 -6.063026 6.159957 0.569247 12.367557 -64.813486 -56.791624 18.545771 -27.472455 -32.848434 -35.629315 -11.909719 14.858980 -4.454702 5.703205 -9.762468 10.906573 75.080838 52.102233 26.431947 24.805628 29.169832 -54.108368 
